<svg xmlns="http://www.w3.org/2000/svg" viewBox="0 0 355 146.02"><defs><style>.cls-1{fill:#fff;}</style></defs><g id="Layer_2" data-name="Layer 2"><g id="Layer_1-2" data-name="Layer 1"><g id="Layer_2-2" data-name="Layer 2"><g id="Capa_1" data-name="Capa 1"><path class="cls-1" d="M328.76,76.67V59.82h7.57v22.4h7.4v-8h7.57v6.58A22.45,22.45,0,1,0,313,79.43h0c.19.34.38.67.59,1,5,8.94-2,13.09-2,13.09a10.27,10.27,0,0,0,9.76-5.64V76.67Z"/><path class="cls-1" d="M199.08,59.65l-4.32,2.68A18.06,18.06,0,0,0,179.5,54.9a17.67,17.67,0,0,0-12.84,5A16.24,16.24,0,0,0,161.55,72a17.09,17.09,0,0,0,2.35,8.7A16.41,16.41,0,0,0,170.35,87a19.5,19.5,0,0,0,24.41-5.18l4.32,2.85a20.4,20.4,0,0,1-8.15,7.09,26.14,26.14,0,0,1-11.65,2.51q-10,0-16.64-6.37A20.75,20.75,0,0,1,156,72.36,22.13,22.13,0,0,1,159.12,61a21.83,21.83,0,0,1,8.5-8.23,24.76,24.76,0,0,1,12.09-2.95,25.62,25.62,0,0,1,8.11,1.28,22.42,22.42,0,0,1,6.62,3.34A18.11,18.11,0,0,1,199.08,59.65Z"/><path class="cls-1" d="M250.62,59.65l-4.32,2.68A18.1,18.1,0,0,0,231,54.9a17.7,17.7,0,0,0-12.84,5A16.19,16.19,0,0,0,213.09,72a17.09,17.09,0,0,0,2.35,8.7A16.41,16.41,0,0,0,221.89,87a19.5,19.5,0,0,0,24.41-5.18l4.32,2.85a20.4,20.4,0,0,1-8.15,7.09,26.14,26.14,0,0,1-11.65,2.51q-10,0-16.64-6.37a20.75,20.75,0,0,1-6.62-15.55A22.23,22.23,0,0,1,210.66,61a21.83,21.83,0,0,1,8.5-8.23,24.83,24.83,0,0,1,12.1-2.95,25.71,25.71,0,0,1,8.11,1.28A22.55,22.55,0,0,1,246,54.39,18.22,18.22,0,0,1,250.62,59.65Z"/><path class="cls-1" d="M303.25,50.87V93.18h-5.37V85.9a23,23,0,0,1-7.68,6.26,21.45,21.45,0,0,1-24.66-4.42,21.82,21.82,0,0,1-6.36-15.84,21.43,21.43,0,0,1,6.41-15.63A21,21,0,0,1,281,49.78,19.92,19.92,0,0,1,290.46,52a21.42,21.42,0,0,1,7.4,6.66V50.87ZM281.49,55A16.4,16.4,0,0,0,267,63.53a17.13,17.13,0,0,0,0,17.09A16.67,16.67,0,0,0,273.15,87a16.08,16.08,0,0,0,8.3,2.28A17,17,0,0,0,289.92,87a15.84,15.84,0,0,0,6.16-6.1,17.37,17.37,0,0,0,2.15-8.67A16.89,16.89,0,0,0,293.4,60,16,16,0,0,0,281.49,55Z"/><path class="cls-1" d="M165.34,102.15l-.91.6a3.75,3.75,0,0,0-3.22-1.68,3.61,3.61,0,0,0-2.71,1.14,3.89,3.89,0,0,0-1.08,2.73,4.09,4.09,0,0,0,.5,2,3.69,3.69,0,0,0,3.3,1.94,3.82,3.82,0,0,0,3.21-1.69l.91.64a4.31,4.31,0,0,1-1.7,1.61,5.14,5.14,0,0,1-2.46.57,4.68,4.68,0,0,1-3.51-1.44,4.88,4.88,0,0,1-1.4-3.52,5.41,5.41,0,0,1,.65-2.59,4.81,4.81,0,0,1,4.36-2.53,5,5,0,0,1,1.71.28,4.93,4.93,0,0,1,1.38.77A3.89,3.89,0,0,1,165.34,102.15Z"/><path class="cls-1" d="M182.71,99.91a4.3,4.3,0,0,1,3.41,1.6,5.44,5.44,0,0,1-.07,7,4.48,4.48,0,0,1-6.34.36,3.06,3.06,0,0,1-.36-.36,5.41,5.41,0,0,1-.08-7A4.31,4.31,0,0,1,182.71,99.91Zm0,1.2a3.26,3.26,0,0,0-2.47,1.14,4,4,0,0,0-1,2.75,4.21,4.21,0,0,0,.47,1.94,3.54,3.54,0,0,0,1.27,1.39,3.4,3.4,0,0,0,3.51,0,3.47,3.47,0,0,0,1.27-1.39,4.09,4.09,0,0,0,.47-1.94,4,4,0,0,0-1-2.75,3.26,3.26,0,0,0-2.46-1.14Z"/><path class="cls-1" d="M200.07,100.15h1.13v1.72a5.14,5.14,0,0,1,1.53-1.48,3.52,3.52,0,0,1,1.82-.48,3,3,0,0,1,1.78.54,3.21,3.21,0,0,1,1.14,1.48,8.16,8.16,0,0,1,.37,2.88v4.94H206.7v-4.58a11.67,11.67,0,0,0-.13-2.21,2.48,2.48,0,0,0-.76-1.43,2.25,2.25,0,0,0-1.48-.48,2.77,2.77,0,0,0-1.87.74,3.62,3.62,0,0,0-1.09,1.84,14.19,14.19,0,0,0-.16,2.61v3.52h-1.14Z"/><path class="cls-1" d="M225.89,101.2l-.74.82a2.57,2.57,0,0,0-1.8-1,1.33,1.33,0,0,0-1,.4,1.28,1.28,0,0,0-.4.92,1.44,1.44,0,0,0,.33.89,4.76,4.76,0,0,0,1.38,1,5.29,5.29,0,0,1,1.75,1.37,2.65,2.65,0,0,1,.45,1.51,2.85,2.85,0,0,1-.77,2,2.56,2.56,0,0,1-1.93.81,3.06,3.06,0,0,1-1.48-.36,3.17,3.17,0,0,1-1.16-1l.72-.89a2.43,2.43,0,0,0,1.87,1.07,1.61,1.61,0,0,0,1.17-.46,1.55,1.55,0,0,0,.49-1.12,1.53,1.53,0,0,0-.32-.94,5.31,5.31,0,0,0-1.45-1,4.5,4.5,0,0,1-1.64-1.32,2.55,2.55,0,0,1-.44-1.49,2.52,2.52,0,0,1,.69-1.81,2.35,2.35,0,0,1,1.76-.73A3.54,3.54,0,0,1,225.89,101.2Z"/><path class="cls-1" d="M238.6,100.15h1.14v4.48a10.66,10.66,0,0,0,.16,2.26,2.54,2.54,0,0,0,.94,1.39,2.77,2.77,0,0,0,1.66.52,2.69,2.69,0,0,0,1.63-.5,2.61,2.61,0,0,0,.93-1.31,10.44,10.44,0,0,0,.17-2.36v-4.48h1.17v4.71a7.84,7.84,0,0,1-.43,3,3.42,3.42,0,0,1-1.29,1.57,4.43,4.43,0,0,1-4.35,0,3.37,3.37,0,0,1-1.31-1.58,8.45,8.45,0,0,1-.43-3.07Z"/><path class="cls-1" d="M259.12,96.45h1.13v13.3h-1.13Z"/><path class="cls-1" d="M274.53,96.59h1.14v3.56h1.82v1.07h-1.82v8.54h-1.14v-8.54H273v-1.07h1.56Z"/><path class="cls-1" d="M294.87,99.91a4.3,4.3,0,0,1,3.42,1.6,5.44,5.44,0,0,1-.07,7,4.5,4.5,0,0,1-6.35.36,3.06,3.06,0,0,1-.36-.36,5.43,5.43,0,0,1-.07-7A4.27,4.27,0,0,1,294.87,99.91Zm0,1.2a3.23,3.23,0,0,0-2.46,1.14,3.9,3.9,0,0,0-1,2.75,4,4,0,0,0,.47,1.94,3.36,3.36,0,0,0,6,0,4.21,4.21,0,0,0-.56-4.69,3.23,3.23,0,0,0-2.46-1.14Z"/><path class="cls-1" d="M312.23,100.15h1.17v1.41a4,4,0,0,1,1.11-1.24,2,2,0,0,1,1.21-.41,2,2,0,0,1,1,.32l-.6,1a1.62,1.62,0,0,0-.61-.16,1.57,1.57,0,0,0-1.11.5,3.28,3.28,0,0,0-.81,1.58,16.36,16.36,0,0,0-.21,3.31v3.25h-1.18Z"/><path class="cls-1" d="M331.23,95.66H333l-2.43,2.71h-1.13Zm-1.14,4.49h1.14v9.6h-1.14Z"/><path class="cls-1" d="M355,100.15v9.6h-1.14V108.1a5.13,5.13,0,0,1-1.62,1.42,4.29,4.29,0,0,1-5.21-1,5.14,5.14,0,0,1-1.33-3.58,5.05,5.05,0,0,1,1.35-3.55,4.28,4.28,0,0,1,3.26-1.47,3.93,3.93,0,0,1,2,.5,4.63,4.63,0,0,1,1.57,1.51v-1.77Zm-4.59.95a3.25,3.25,0,0,0-1.77.5,3.58,3.58,0,0,0-1.3,1.43,4.14,4.14,0,0,0,0,3.87,3.7,3.7,0,0,0,1.31,1.44,3.18,3.18,0,0,0,1.75.52,3.52,3.52,0,0,0,3.08-1.9,4.16,4.16,0,0,0,.46-2,4,4,0,0,0-1-2.78,3.24,3.24,0,0,0-2.51-1.12Z"/></g></g><g id="Layer_2-3" data-name="Layer 2"><g id="Capa_1-2" data-name="Capa 1"><path class="cls-1" d="M59,90.24h1v.89H59Zm0,1.63h1v4.28H59Z"/><path class="cls-1" d="M60.81,91.87h.9v.64a1.55,1.55,0,0,1,1.34-.77,1.36,1.36,0,0,1,1.51,1.46v2.94h-.94V93.45c0-.67-.28-1-.84-1a1,1,0,0,0-1,1.05.25.25,0,0,0,0,.08v2.52h-.95Z"/><path class="cls-1" d="M65,91.87h1l1.08,3.29h0l1-3.29h1L67.6,96.15H66.54Z"/><path class="cls-1" d="M70.27,94.25a1.14,1.14,0,0,0,1.15,1.27,1,1,0,0,0,1-.71h.89a1.88,1.88,0,0,1-1.94,1.46A2,2,0,0,1,69.33,94a2.07,2.07,0,1,1,4.09.24Zm2.21-.62a1.12,1.12,0,0,0-1-1.16,1.11,1.11,0,0,0-1.16,1v.11Z"/><path class="cls-1" d="M74.69,94.78c0,.54.46.74,1,.74.35,0,1-.07,1-.56s-.71-.56-1.4-.71-1.38-.4-1.38-1.27,1-1.24,1.79-1.24,1.68.37,1.79,1.32h-1c-.09-.45-.46-.57-.87-.57s-.78.06-.78.44.69.53,1.39.69,1.38.4,1.38,1.23c0,1-1,1.39-1.91,1.39-1.08,0-1.88-.47-1.9-1.49Z"/><path class="cls-1" d="M77.68,91.87h.71V90.58h.94v1.29h.86v.7h-.86v2.29c0,.39,0,.59.46.59a1.81,1.81,0,0,0,.4,0v.73c-.21,0-.41,0-.62,0-1,0-1.17-.38-1.19-1.09V92.57h-.71Z"/><path class="cls-1" d="M80.7,91.87h.89v.6h0a1.42,1.42,0,0,1,1.32-.71,1.21,1.21,0,0,1,1.19.71,1.52,1.52,0,0,1,1.34-.71,1.26,1.26,0,0,1,1.44,1.44v3H86v-2.5c0-.68,0-1.16-.78-1.16s-.91.43-.91,1.15v2.51h-1V93.4c0-.59-.18-.9-.75-.9a1,1,0,0,0-.93,1.11v2.54h-1Z"/><path class="cls-1" d="M88.48,94.25a1.14,1.14,0,0,0,1.15,1.27,1,1,0,0,0,1-.71h.9a1.88,1.88,0,0,1-1.94,1.46A2,2,0,0,1,87.53,94a2.08,2.08,0,1,1,4.1.24Zm2.2-.62a1.1,1.1,0,1,0-2.2-.11v.11Z"/><path class="cls-1" d="M92.17,91.87h.9v.64a1.55,1.55,0,0,1,1.34-.77,1.36,1.36,0,0,1,1.51,1.46v2.94H95V93.45c0-.67-.28-1-.84-1a1,1,0,0,0-1,1.05.25.25,0,0,0,0,.08v2.52h-1Z"/><path class="cls-1" d="M96.34,91.87h.71V90.58h1v1.29h.85v.7H98v2.29c0,.39,0,.59.45.59a1.75,1.75,0,0,0,.4,0v.73c-.21,0-.41,0-.62,0-1,0-1.16-.38-1.18-1.09V92.57h-.71Z"/><path class="cls-1" d="M100.08,94.78c0,.54.46.74,1,.74s1-.07,1-.56-.72-.56-1.4-.71-1.38-.4-1.38-1.27,1-1.24,1.79-1.24,1.68.37,1.79,1.32h-1c-.09-.45-.46-.57-.88-.57-.27,0-.77.06-.77.44s.69.53,1.39.69,1.38.4,1.38,1.23c0,1-1,1.39-1.91,1.39-1.08,0-1.88-.47-1.9-1.49Z"/><path class="cls-1" d="M35.86,102.53a.89.89,0,0,0-1-.8c-.48,0-1.17.25-1.17,1.54,0,.72.31,1.47,1.13,1.47a1,1,0,0,0,1-1h1a1.84,1.84,0,0,1-2,1.72,2,2,0,0,1-2.08-2.22,2.07,2.07,0,0,1,2.11-2.3,1.74,1.74,0,0,1,1.93,1.55Z"/><path class="cls-1" d="M37.21,103.24a2.17,2.17,0,1,1,2.17,2.26A2.08,2.08,0,0,1,37.21,103.24Zm3.38,0c0-.74-.37-1.51-1.21-1.51s-1.22.77-1.22,1.51.37,1.51,1.22,1.51,1.21-.77,1.21-1.51Z"/><path class="cls-1" d="M42.16,101.1h.89v.62h0a1.56,1.56,0,0,1,1.34-.76,1.35,1.35,0,0,1,1.51,1.46v2.94H45v-2.69c0-.67-.29-1-.84-1a1,1,0,0,0-1,1v2.6h-.94Z"/><path class="cls-1" d="M47.46,104c0,.54.46.74,1,.74s1-.07,1-.56-.71-.56-1.4-.71-1.37-.4-1.37-1.27,1-1.24,1.79-1.24a1.57,1.57,0,0,1,1.78,1.32h-1c-.08-.45-.46-.57-.87-.57s-.78.06-.78.43.69.53,1.39.69,1.39.41,1.39,1.25c0,1-1,1.4-1.92,1.4-1.07,0-1.88-.49-1.9-1.5Z"/><path class="cls-1" d="M54.64,105.38h-.93v-.6h0a1.45,1.45,0,0,1-1.22.72c-1.12,0-1.6-.56-1.6-1.68V101.1h.93v2.63c0,.75.31,1,.82,1,.79,0,1-.5,1-1.17v-2.47h1Z"/><path class="cls-1" d="M55.49,99.46h.95v5.92h-.95Z"/><path class="cls-1" d="M56.87,101.1h.71V99.81h1v1.29h.86v.7h-.86v2.29c0,.39,0,.59.46.59a1.81,1.81,0,0,0,.4,0v.73c-.21,0-.41,0-.62,0-1,0-1.17-.38-1.19-1.09V101.8h-.71Z"/><path class="cls-1" d="M59.92,99.46h.94v.9h-.94Zm0,1.64h.94v4.28h-.94Z"/><path class="cls-1" d="M61.72,101.1h.9v.62h0A1.53,1.53,0,0,1,64,101a1.35,1.35,0,0,1,1.51,1.46v2.94h-.94v-2.69c0-.67-.28-1-.84-1a1,1,0,0,0-1,1,.17.17,0,0,0,0,.07v2.53h-.93Z"/><path class="cls-1" d="M70.27,105.15c0,1.28-.75,1.93-2.1,1.93-.86,0-1.83-.34-1.92-1.34h1c.11.54.54.62,1,.62a1,1,0,0,0,1.1-1.1v-.65h0a1.47,1.47,0,0,1-1.29.75c-1.36,0-1.92-1-1.92-2.25A2,2,0,0,1,68.06,101a1.37,1.37,0,0,1,1.27.71h0v-.59h.94Zm-.94-2c0-.74-.33-1.42-1.15-1.42s-1.13.78-1.13,1.49.34,1.42,1.13,1.42,1.15-.76,1.15-1.49Z"/><path class="cls-1" d="M73.92,104c0,.54.47.74,1,.74s1-.07,1-.56-.72-.56-1.4-.71-1.38-.4-1.38-1.27,1-1.24,1.79-1.24a1.58,1.58,0,0,1,1.79,1.32h-1c-.08-.45-.45-.57-.87-.57s-.78.06-.78.43.7.53,1.4.69,1.38.41,1.38,1.25c0,1-1,1.4-1.91,1.4-1.08,0-1.88-.49-1.9-1.5Z"/><path class="cls-1" d="M78.07,103.48a1.13,1.13,0,0,0,1.15,1.27,1,1,0,0,0,1-.71h.9a1.9,1.9,0,0,1-1.94,1.46,2,2,0,0,1-2.1-2.26,2.08,2.08,0,1,1,4.1.24Zm2.2-.61a1.1,1.1,0,1,0-2.2,0h2.2Z"/><path class="cls-1" d="M81.77,101.1h.88v.83h0a1.39,1.39,0,0,1,1.24-1,2.19,2.19,0,0,1,.36,0v.91a2.85,2.85,0,0,0-.41,0c-.65,0-1.16.52-1.16,1.46v2h-.94Z"/><path class="cls-1" d="M84.1,101.1h1l1.08,3.29h0l1-3.29h1l-1.55,4.28H85.64Z"/><path class="cls-1" d="M88.68,99.46h.94v.9h-.94Zm0,1.64h.94v4.28h-.94Z"/><path class="cls-1" d="M93.37,102.53a.89.89,0,0,0-1-.8c-.49,0-1.18.25-1.18,1.54,0,.72.31,1.47,1.14,1.47a1,1,0,0,0,1-1h1a1.85,1.85,0,0,1-2,1.72,2,2,0,0,1-2.08-2.22,2.08,2.08,0,0,1,2.12-2.3,1.74,1.74,0,0,1,1.93,1.55Z"/><path class="cls-1" d="M95.66,103.48a1.13,1.13,0,0,0,1.15,1.27,1,1,0,0,0,1-.71h.9a1.88,1.88,0,0,1-1.94,1.46,2,2,0,0,1-2.09-2.26,2.07,2.07,0,1,1,4.09.24Zm2.2-.61a1.1,1.1,0,1,0-2.2-.12v.12Z"/><path class="cls-1" d="M100.08,104c0,.54.46.74,1,.74s1-.07,1-.56-.72-.56-1.4-.71-1.38-.4-1.38-1.27,1-1.24,1.79-1.24,1.68.37,1.79,1.32h-1c-.09-.45-.46-.57-.88-.57-.27,0-.77.06-.77.43s.69.53,1.39.69,1.38.41,1.38,1.25c0,1-1,1.4-1.91,1.4-1.08,0-1.88-.49-1.9-1.5Z"/><path class="cls-1" d="M115,103.94a5,5,0,0,1-4.14,1.94c-2.7,0-4.64-1.61-4.64-4.38,0-2.09,1.7-3.4,3.4-4.28A5.26,5.26,0,0,1,108.16,94a3.65,3.65,0,0,1,7.29,0,4.4,4.4,0,0,1-2.67,3.74l2.3,2.77a8,8,0,0,0,.45-2h2.07a8.57,8.57,0,0,1-1.16,3.61l2.83,3.43h-2.89Zm-4.16-5.17c-.87.54-2.27,1-2.27,2.77A2.26,2.26,0,0,0,111,104a3.14,3.14,0,0,0,2.79-1.65Zm-.62-4.9c0,1,.81,1.72,1.35,2.48.89-.6,1.73-1.23,1.73-2.4a1.54,1.54,0,1,0-3.08-.18v.1Z"/><path class="cls-1" d="M131.56,68.64a.86.86,0,0,0-.68-.31,1.13,1.13,0,0,0-.93.53l-2.58,3.46c-.85,1.15-1.63,2.22-2.33,3.2s-1.32,1.84-1.88,2.57q-3.51,4.51-4.53,4.51c-.38,0-.57-.4-.57-1.21a27.34,27.34,0,0,1,2.35-9.61q2.36-5.86,2.38-8.38c0-2.22-.57-3.85-1.69-4.88a3.61,3.61,0,0,0-2.52-.92q-2.88,0-6.45,4.16A55.32,55.32,0,0,0,106,70.38l-.65,1.12L108.73,62A3.68,3.68,0,0,0,109,60.8a2.71,2.71,0,0,0-.47-1.43A3.33,3.33,0,0,0,107,58.16a4.79,4.79,0,0,0-1.93-.45l-.54,0a.73.73,0,0,0-.67.59L100.1,68.92q-2.49,3.4-3.71,5c-1,1.3-2.08,2.57-3.19,3.81a26.25,26.25,0,0,1-5,4.23,3.88,3.88,0,0,1-2.06.78q-2.2,0-2.93-3.38a15,15,0,0,1-.31-3.2A11.87,11.87,0,0,1,83,74.58a11.2,11.2,0,0,0,6.11-1.75,13.41,13.41,0,0,0,3.07-2.65,16.69,16.69,0,0,0,3.24-5.8,8.8,8.8,0,0,0,.38-2.55,4.15,4.15,0,0,0-4.43-4.24A10.74,10.74,0,0,0,86,59a15.38,15.38,0,0,0-4.21,3.57,21.13,21.13,0,0,0-3,4.74,22.05,22.05,0,0,0-1.53,4.47L75.71,73.9q-1.54,2-3.2,3.81a26.48,26.48,0,0,1-5,4.25,3.91,3.91,0,0,1-2.07.78c-1.46,0-2.44-1.13-2.92-3.38a15,15,0,0,1-.31-3.2,11.87,11.87,0,0,1,.11-1.58,11.23,11.23,0,0,0,6.12-1.75,13.36,13.36,0,0,0,3.06-2.65,16.53,16.53,0,0,0,3.24-5.8,8.13,8.13,0,0,0,.38-2.55,4.13,4.13,0,0,0-4.42-4.24A10.69,10.69,0,0,0,65.37,59a15.42,15.42,0,0,0-4.22,3.57,21.13,21.13,0,0,0-2.95,4.74,22.71,22.71,0,0,0-1.54,4.47l-2.34,3.17q-4.95,6.63-7.27,6.62-1,0-1-1.5,0-4.77,4.81-12.93c.8-1.36,1.5-2.52,2.08-3.47a4.93,4.93,0,0,0,.87-2.09,2.84,2.84,0,0,0-1.42-2.3,4.8,4.8,0,0,0-2.55-1.08,1.31,1.31,0,0,0-.81.31,6.4,6.4,0,0,1-4.1,1.59,5.26,5.26,0,0,1-1.67-.27,13.69,13.69,0,0,0,.27-2.71,6,6,0,0,0-.56-2.67,2,2,0,0,0-2-1.14,2.61,2.61,0,0,0-1.93.93,3.12,3.12,0,0,0-.89,2.24A4.78,4.78,0,0,0,40.69,61a25.92,25.92,0,0,1-3.75,7.89c-2.4,3.26-4.09,5.48-5,6.66a34.67,34.67,0,0,1-7.16,6.52q3.86-10.3,6.92-20.41a3.51,3.51,0,0,0,.16-1.07A2.12,2.12,0,0,0,30.9,59a5,5,0,0,0-3.17-1.26,1,1,0,0,0-1.05.59c-.59,1.53-1.13,3.1-1.62,4.69a15.76,15.76,0,0,0-1-2.8,5.9,5.9,0,0,0-1.73-2.11,4.48,4.48,0,0,0-2.77-.8,7.6,7.6,0,0,0-4.07,1.15,16.7,16.7,0,0,0-5.82,6.81A29.67,29.67,0,0,0,6.19,79,10.37,10.37,0,0,0,7,83.38a3.45,3.45,0,0,0,3.27,2.23,3.57,3.57,0,0,0,1.88-.56,8.72,8.72,0,0,0,1.67-1.36,11.06,11.06,0,0,0,1.27-1.54L22,72.25q-2.31,6.94-4.75,12.87c-3.23,1.26-5.76,2.32-7.6,3.2Q3,91.52,3,96.21a5.43,5.43,0,0,0,1.59,4.17,6.92,6.92,0,0,0,4.88,1.49q5.25,0,8.37-4.89a72.12,72.12,0,0,0,5.64-11.72,39.22,39.22,0,0,0,11.16-9.8c.72-.9,2-2.68,4-5.37a25.51,25.51,0,0,0,4.16-8.26,8.84,8.84,0,0,0,2.17.27,10.67,10.67,0,0,0,2.63-.4q-7.65,12.06-7.65,18.16a7.69,7.69,0,0,0,1,3.91,3.49,3.49,0,0,0,3.23,1.78q5.41,0,11.8-9.28l.18-.24c0,.18,0,.36,0,.54q0,4.88,2.85,7.35a6.52,6.52,0,0,0,4.45,1.58,8.23,8.23,0,0,0,4-1q4.41-2.33,9.44-8.57c0,.23,0,.45,0,.68q0,4.89,2.84,7.36a6.54,6.54,0,0,0,4.43,1.58,8.23,8.23,0,0,0,4-1q4.53-2.39,9.71-8.91l-2,5.5a3.44,3.44,0,0,0-.27,1.27A2.83,2.83,0,0,0,97.35,85a4.82,4.82,0,0,0,2.07.54c.55,0,.91-.14,1.07-.43l1.42-2.74q6.48-13.06,11.75-19.24c1.12-1.3,2-2,2.66-2,.31,0,.48.45.48,1.35a13.9,13.9,0,0,1-.56,3.32,57.86,57.86,0,0,1-1.92,5.75,47.81,47.81,0,0,0-1.81,5.5,9,9,0,0,0-.35,2.36c0,2.43.47,4.11,1.4,5A4.76,4.76,0,0,0,117,85.79c1.94,0,4.1-1.56,6.5-4.69q2.16-2.82,3.62-4.83c1-1.34,1.69-2.34,2.15-3,.62-.82,1.39-1.88,2.3-3.16a1.13,1.13,0,0,0,.25-.7A1.07,1.07,0,0,0,131.56,68.64ZM87,64.49a14.94,14.94,0,0,1,3.06-3,5.33,5.33,0,0,1,2.79-1.28c.69,0,1,.49,1,1.47a8,8,0,0,1-.4,2.17,14.42,14.42,0,0,1-2.82,5A10.67,10.67,0,0,1,88,71.08a8.56,8.56,0,0,1-4.67,1.48A20.51,20.51,0,0,1,87,64.49Zm-20.66,0a14.94,14.94,0,0,1,3.06-3,5.34,5.34,0,0,1,2.78-1.28q1.05,0,1.05,1.47a8,8,0,0,1-.4,2.17,14.42,14.42,0,0,1-2.82,5,10.86,10.86,0,0,1-2.6,2.23,8.56,8.56,0,0,1-4.67,1.48A20.51,20.51,0,0,1,66.29,64.49ZM14.13,92.08a21.51,21.51,0,0,1-3.23,5.09c-1.32,1.47-2.54,2.2-3.65,2.2a1.93,1.93,0,0,1-1.64-.8A4,4,0,0,1,5,96.13q0-4.86,11.11-8.46Q15,90.31,14.13,92.08Zm-.27-11.46c-.59.85-1,1.28-1.21,1.28-.39,0-.59-.48-.59-1.45a38.83,38.83,0,0,1,1.27-8.37,23.22,23.22,0,0,1,4.28-9.17q2.17-2.77,3.36-2.77a3,3,0,0,1,.86.31c.44.2.94,1.53,1.5,4l.37,1.72Q16.46,76.75,13.86,80.62Z"/><circle class="cls-1" cx="19.91" cy="27.68" r="1.03"/><path class="cls-1" d="M20.19,27.61a19.38,19.38,0,0,1-7.42-4.21A17.89,17.89,0,0,1,10,20.18c-.77-1.11-1.32-2.33-2-3.49a.15.15,0,0,0-.2-.06.14.14,0,0,0-.06.17c.72,2.68,2.84,5.18,4.89,7a18.41,18.41,0,0,0,7.53,4,.09.09,0,0,0,.12-.07.09.09,0,0,0-.07-.12Z"/><path class="cls-1" d="M8.36,17.46c1.24-.41,1.73-1.76,2.05-2.91A14.46,14.46,0,0,0,11,9a.17.17,0,0,0-.19-.15.16.16,0,0,0-.14.15c-.2,2.66-.06,6.43-2.42,8.22C8.12,17.28,8.18,17.52,8.36,17.46Z"/><path class="cls-1" d="M8,16.68a10.56,10.56,0,0,0-.91-6.33.14.14,0,0,0-.25.11c.24,1,.57,1.9.73,2.89a30.08,30.08,0,0,1,.17,3.29C7.72,16.79,8,16.83,8,16.68Z"/><path class="cls-1" d="M8.15,17.18a5.87,5.87,0,0,1-4.9-3.76c0-.12-.22,0-.2.09a5.36,5.36,0,0,0,5.1,3.83A.08.08,0,0,0,8.15,17.18Z"/><path class="cls-1" d="M8.1,17.29c-2.84.62-5.85,1.14-7.78-1.54-.1-.14-.37-.06-.31.12,1.25,3.22,5.62,2.57,8.15,1.68a.13.13,0,0,0-.07-.26Z"/><path class="cls-1" d="M8,17a7.51,7.51,0,0,1-5.4,3.49c-.17,0-.12.28,0,.28A6.2,6.2,0,0,0,8.2,17.16c.05-.13-.12-.24-.2-.12Z"/><circle class="cls-1" cx="14.99" cy="35.2" r="0.97"/><path class="cls-1" d="M5.47,39.71c3.48-.21,7.4-1.61,9.7-4.36A.22.22,0,0,0,15.1,35a.23.23,0,0,0-.25,0,18.63,18.63,0,0,1-4.16,3,13.94,13.94,0,0,1-5.22,1.34c-.25,0-.25.4,0,.39Z"/><path class="cls-1" d="M1.22,34.17c2.35,0,3.46,3.52,4,5.37a.19.19,0,0,0,.22.13.18.18,0,0,0,.13-.18A7.61,7.61,0,0,0,4,35.5a3.2,3.2,0,0,0-2.81-1.72.19.19,0,0,0-.17.22A.19.19,0,0,0,1.22,34.17Z"/><path class="cls-1" d="M.59,36.91a4.87,4.87,0,0,1,2.8.61,6.59,6.59,0,0,1,2,2.08.15.15,0,0,0,.21,0,.14.14,0,0,0,.07-.17c-.52-2.08-3.18-3.14-5.1-2.83C.41,36.67.44,36.92.59,36.91Z"/><path class="cls-1" d="M5,39.39c-1.2.57-2.48,1-3.65,1.59a.16.16,0,0,0,.13.3,15.29,15.29,0,0,0,3.71-1.56c.22-.12,0-.44-.19-.33Z"/><path class="cls-1" d="M5.18,39.41c-.13,1.82-.58,3.34-2.39,4.08-.15.06-.15.33,0,.31,2.07-.24,2.86-2.63,2.59-4.42C5.4,39.23,5.19,39.28,5.18,39.41Z"/><path class="cls-1" d="M5.62,45.26c1.72-1.75.81-5.2-.77-6.74-.12-.11-.33,0-.23.18,1.09,1.63,2.32,4.55.69,6.26a.22.22,0,0,0,.31.31Z"/><circle class="cls-1" cx="28.57" cy="42.74" r="1.03"/><path class="cls-1" d="M15.13,49c3.74-3.74,8.19-6.66,13.71-6.13.1,0,.12-.17,0-.19-5.4-1.1-10.35,2.52-13.93,6.12a.14.14,0,0,0,.2.2Z"/><path class="cls-1" d="M18.45,46a7.37,7.37,0,0,1-1.79,4.37.1.1,0,0,0,0,.15.1.1,0,0,0,.13,0,5.54,5.54,0,0,0,1.8-4.51.07.07,0,0,0-.09-.06.09.09,0,0,0-.06.06Z"/><path class="cls-1" d="M18.54,45.46a5.65,5.65,0,0,0-5.45-.25.08.08,0,0,0,0,.09.07.07,0,0,0,.09,0h0a7.15,7.15,0,0,1,5.32.28.08.08,0,0,0,.11,0A.1.1,0,0,0,18.54,45.46Z"/><path class="cls-1" d="M140,65a65.81,65.81,0,0,0-35.62-44.2,68.81,68.81,0,0,0-9.07-3.51c-.77-.25-1.56-.43-2.34-.65l-1.18-.31-1.2-.27c-.79-.16-1.57-.35-2.37-.49l-2.4-.39c-.39-.07-.8-.12-1.2-.16l-1.2-.13-1.21-.13c-.4,0-.8-.05-1.21-.08l-2.4-.13-2.42,0a62.19,62.19,0,0,0-9.63.75,63.9,63.9,0,0,0-9.36,2.19c-1.35.43-2.68.91-4,1.42a6.16,6.16,0,0,0-.71-1c.92-.74,1.85-1.46,2.8-2.16Q57.6,14,60,12.37c.82-.56,1.64-1.11,2.45-1.68a4,4,0,0,0,4.13,1.92.18.18,0,0,0,.11-.2.15.15,0,0,0-.15-.11,4.51,4.51,0,0,1-3.93-1.71,9.19,9.19,0,0,0,2-1.6.07.07,0,0,0-.07-.12,8.65,8.65,0,0,0-2.25,1.18A6.57,6.57,0,0,1,63.4,5.69a.09.09,0,0,0,0-.11.14.14,0,0,0-.09,0,4.93,4.93,0,0,0-1.35,4.29,10.48,10.48,0,0,1-1.21-2.47,5.26,5.26,0,0,1,.81-4c0-.08-.08-.18-.14-.11a4.75,4.75,0,0,0-1.12,3.5A6.88,6.88,0,0,0,61.5,9.88a5.74,5.74,0,0,1-1.26-.51,5.78,5.78,0,0,1-1.11-1,.06.06,0,0,0-.09,0,.07.07,0,0,0,0,.06,3.09,3.09,0,0,0,2.59,1.82.2.2,0,0,0,.08,0l.1.16c-.74.46-1.47.93-2.21,1.41-1.74,1.15-3.47,2.31-5.16,3.53-.86.62-1.71,1.26-2.55,1.94a5.8,5.8,0,0,0-1-.66,35.55,35.55,0,0,0,2.24-2.83c.68-.91,1.4-1.86,2.16-2.76a1.79,1.79,0,0,0,2.18-.05s0-.06,0-.05a2.05,2.05,0,0,1-1.24.19,2,2,0,0,1-.7-.31,13.59,13.59,0,0,1,1.19-1.21c.13-.11-.06-.29-.19-.18a13.07,13.07,0,0,0-1.23,1.12A2.56,2.56,0,0,1,54.9,9.3a3.33,3.33,0,0,1,.31-1.16s0,0,0,0h0a1.72,1.72,0,0,0,0,2.47.21.21,0,0,0,0,.06c-.78.82-1.48,1.73-2.18,2.62s-1.68,2-2.53,3A5.44,5.44,0,0,0,49.27,16c.2-.68.41-1.35.62-2,.88-2.64,1.89-5.22,3-7.78h.08A4.46,4.46,0,0,0,58.1,5.4s0-.13-.07-.09A4.74,4.74,0,0,1,53.39,6,5.75,5.75,0,0,0,56.45,3c0-.07-.09-.12-.13,0a7.38,7.38,0,0,1-1.57,1.91,9.86,9.86,0,0,1-1.76,1c.49-1.17,1-2.35,1.51-3.53,0-.07-.07-.13-.11-.06-.62,1.12-1.21,2.27-1.76,3.44l-.18-.21A7.22,7.22,0,0,1,52.14.91c0-.16-.19-.22-.25-.07a6.1,6.1,0,0,0-.18,3.8A4.44,4.44,0,0,1,50.82.09c0-.07-.09-.13-.13,0-.76,1.74-.23,4.54,1.49,5.65l.06.12a.16.16,0,0,0,.22,0l.06,0c-1.16,2.47-2.16,5-3.09,7.54-.29.8-.57,1.62-.84,2.44a4.09,4.09,0,0,0-.7,0c0-.81,0-1.61,0-2.42a26.69,26.69,0,0,1,.77-5.55c.05-.16-.22-.25-.28-.09-.14.43-.27.86-.37,1.3a4.65,4.65,0,0,1-.6-.85c-.15-.33-.19-.69-.31-1,0,0,0,0-.05,0a0,0,0,0,0,0,0,2.28,2.28,0,0,0,.71,1.93,2,2,0,0,1-.49,0,1.16,1.16,0,0,1-.62-.39.06.06,0,0,0-.08,0,.13.13,0,0,0,0,.06c.24.37.91.8,1.34.48h0l.09.07a27,27,0,0,0-.5,4.2c0,.75-.09,1.55-.1,2.36a6.18,6.18,0,0,0-.93.2c-.18-.48-.33-1-.47-1.46-.38-1.39-.61-2.81-.88-4.22a26,26,0,0,0-1-4.06c2.32.08,3.9-2.78,4-4.85,0-.08-.12-.09-.13,0C47.47,3.7,46.28,5.8,44,6c1.76-1.24,2-3.62,1.58-5.57,0-.09-.17-.07-.16,0a5.8,5.8,0,0,1-1.64,5.18,10.09,10.09,0,0,0-1.81-2.84.07.07,0,0,0-.11,0,.08.08,0,0,0,0,.08,18.13,18.13,0,0,1,1.36,2.89c-1.69-.38-3.62-.55-4.15-2.57,0-.09-.15-.05-.13,0,.4,1.91,2.45,2.78,4.27,2.9a.15.15,0,0,0,.1.14l.09,0v0a3.89,3.89,0,0,1-3.63-.11.09.09,0,0,0-.1.14,3.66,3.66,0,0,0,3.84.31,43.85,43.85,0,0,1,1.26,5.56,24.63,24.63,0,0,0,1.06,4.16,6.15,6.15,0,0,0-1.11.64c-.62-.54-1.23-1.08-1.89-1.6-1.47-1.23-3-2.41-4.51-3.53-.31-.22-.62-.45-1-.67A5.13,5.13,0,0,0,39,7.66,5,5,0,0,0,37,4c-.2-.16-.47.1-.28.28a4.78,4.78,0,0,1,1.91,3.51,5,5,0,0,1-1,2.59,4.49,4.49,0,0,0-3.1-5.06c-.16,0-.29.2-.12.28A5.07,5.07,0,0,1,36.77,7.7,4.74,4.74,0,0,1,37,11a17.08,17.08,0,0,0-3.79-2.09A.18.18,0,0,0,33,9a.22.22,0,0,0,0,.17,35.11,35.11,0,0,0,3.34,2.47,4.21,4.21,0,0,1-2.94.29,18.53,18.53,0,0,1-3.07-1c-.2-.08-.33.24-.14.34,1.31.73,4.75,2.1,6.28.87l0,.09a3.19,3.19,0,0,1-2.09,1.59A7.23,7.23,0,0,1,29.58,13c-.13-.07-.31.08-.22.22.35.5,1.24.59,1.77.75a7.12,7.12,0,0,0,2.86.29,4,4,0,0,0,1.93-.82,4.33,4.33,0,0,0,1-1.42l.72.53c1.62,1.2,3.19,2.47,4.73,3.76l1.55,1.33a5.4,5.4,0,0,0-.9,1.23c-.93-.48-1.91-.91-2.85-1.31-.75-.31-1.54-.66-2.33-1a3.55,3.55,0,0,0-.5-1.08,2.77,2.77,0,0,0-1-1.09s-.09,0-.06.06c.23.42.59.76.84,1.18a7,7,0,0,1,.35.79,11.06,11.06,0,0,0-2.27-.55c-.11,0-.15.16-.06.2a17.2,17.2,0,0,0,2.07.89,3.92,3.92,0,0,1-1.8.5c-.08,0-.11.13,0,.14a3,3,0,0,0,2.29-.46c.88.31,1.76.62,2.6,1s1.68.81,2.5,1.25a5.7,5.7,0,0,0-.38,1.4c-2.53-.41-5.11-.64-7.65-.86-.16,0-.2.26,0,.29,2.52.4,5.09.82,7.64,1a5.22,5.22,0,0,0,.08,1.31c-1,.16-1.95.31-2.92.5-1.79.33-3.65.64-5.48,1.06a4.07,4.07,0,0,0-1.32-3.27,5,5,0,0,0-2.11-1,4.42,4.42,0,0,0-2-.21.2.2,0,0,0-.12.25s0,0,0,.06l0,0a.16.16,0,0,0,.22,0h0l0,0a.15.15,0,0,0,0-.18c.36.45,1.31.35,1.85.5a4.43,4.43,0,0,1,1.81.88A4.15,4.15,0,0,1,33.63,24a6.16,6.16,0,0,0-6.45-1.21c-.22.09-.13.44.1.36a6.23,6.23,0,0,1,6.12,1.19,24.36,24.36,0,0,0-3.52,1.11c-.1,0-.1.23,0,.21,1.27-.14,2.54-.39,3.8-.65h0a6.23,6.23,0,0,1-1.6,2.67A6,6,0,0,1,29,29.05c-.21,0-.15.33,0,.34a5.26,5.26,0,0,0,4.87-3.66,5.16,5.16,0,0,1-2.25,5.65c-.22.16,0,.53.22.38A5.77,5.77,0,0,0,34,24.92c1.74-.38,3.47-.79,5.21-1.1,1.09-.19,2.19-.36,3.3-.53a5.49,5.49,0,0,0,.57,1.32A22.77,22.77,0,0,0,37,28.78.13.13,0,0,0,37,29a.12.12,0,0,0,.16,0c1.09-.74,2.11-1.57,3.19-2.31.93-.65,1.93-1.21,2.89-1.83a5.94,5.94,0,0,0,1,1.19c-.52.77-1,1.55-1.54,2.32s-1.2,1.69-1.76,2.57c-.45-.54-1.82.52-2.11.81a.07.07,0,0,0,0,.1.08.08,0,0,0,.07,0c.58-.16,1.25-.86,1.88-.67a13.26,13.26,0,0,0-.74,1.33c-.07.15.12.31.24.19a11.38,11.38,0,0,0,.85-1.12,1.52,1.52,0,0,1,.16.55,1.92,1.92,0,0,1-.14.82.06.06,0,0,0,.05.06s0,0,0,0a1.4,1.4,0,0,0,.08-1.71c.56-.85,1.07-1.76,1.61-2.6s1-1.62,1.54-2.44a6.67,6.67,0,0,0,.91.58l.59.26c-.16.48-.33.95-.48,1.44q-.82,2.66-1.51,5.35c-.09.35-.17.71-.26,1.06a8,8,0,0,0-4.2-.57c-.62.07-2.87.27-2.88,1.14,0,.22.36.28.39.05s1.55-.63,1.86-.69a8.22,8.22,0,0,1,1.85-.16,10.17,10.17,0,0,1,2.62.48c-1.61-.07-3.94,1.05-4.5,2.57-.05.17.17.25.28.16a13.33,13.33,0,0,1,2-1.68,7.47,7.47,0,0,1,2.45-.71c-.11.42-.21.84-.31,1.26a11.41,11.41,0,0,0-.59,3.35.1.1,0,0,0,.1.1.11.11,0,0,0,.09-.05,10.49,10.49,0,0,0,1-2.87l.41-1.49A9.05,9.05,0,0,1,46,37.63a14.33,14.33,0,0,1,1.09,2.51c.08.19.42.2.41-.06A6.36,6.36,0,0,0,45.21,36c1.91,1.27,3.56,2.59,4.43,4.91a.1.1,0,0,0,.13.06.1.1,0,0,0,.06-.11c-.56-2.64-2.87-4.72-5.31-5.71.09-.31.17-.62.25-.9.5-1.79,1-3.58,1.58-5.35.16-.53.34-1.05.52-1.57a5.82,5.82,0,0,0,1.86.11c.07,1,.23,2.05.26,3.09,0,1.2-.09,2.4-.08,3.61,0,.16.27.21.31,0A16.83,16.83,0,0,0,49,27.39a6,6,0,0,0,1.24-.34,41.82,41.82,0,0,1,2.28,4.22c.31.67.57,1.35.82,2a.1.1,0,0,0,0,.12A4.07,4.07,0,0,0,51,37.84c0,.13.24.1.22,0a3.68,3.68,0,0,1,2.32-4c.46,1.33.84,2.69,1.18,4.08a.14.14,0,0,0,.17.09.16.16,0,0,0,.09-.12,15.66,15.66,0,0,0-1-4.27h0a8.65,8.65,0,0,1,3,3.07.09.09,0,0,0,.17-.08,6.67,6.67,0,0,0-2.5-3A6.21,6.21,0,0,1,59.12,36c.06.08.19,0,.14-.11A6,6,0,0,0,54,33.18l-.22-.11c-.23-.58-.47-1.15-.71-1.71a33.22,33.22,0,0,0-2.3-4.53,6,6,0,0,0,1.06-.69c.27.23.53.48.8.73,1,1,2,2.05,3,3.11a1.55,1.55,0,0,0,0,.74,2.81,2.81,0,0,0,.34,1s0,0,0,0a0,0,0,0,0,0,0,4.13,4.13,0,0,1-.18-1,2,2,0,0,1,0-.42c.5.54,1,1.07,1.52,1.58,0,0,.07,0,0-.05L56,30a2.56,2.56,0,0,1,1.26.37.07.07,0,0,0,.1,0,.08.08,0,0,0,0-.08,1.76,1.76,0,0,0-1.4-.46.08.08,0,0,0-.08.05,44.29,44.29,0,0,0-3.7-4.05A5.79,5.79,0,0,0,53.3,24.3c0-.08.07-.17.11-.25,1.05.56,2.12,1.1,3.2,1.63,1.67.82,3.35,1.61,5,2.39l.29.12c-1.49,1.75-2.36,4.82-.09,6.31a.09.09,0,0,0,.11-.14,4.23,4.23,0,0,1,.16-5.59,4.86,4.86,0,0,0,1.55,3.93.12.12,0,0,0,.19,0,.13.13,0,0,0,0-.2,5.34,5.34,0,0,1-1.18-2.38,4.65,4.65,0,0,1,0-1.58c.46.21.92.43,1.4.62a5.26,5.26,0,0,0,2.27.75c.06,0,.11-.07.07-.12a5.07,5.07,0,0,0-2-1.25l-1.31-.65c1-1.66,2.66-1.38,4.33-1.58.26,0,.27-.45,0-.41-1.86.21-3.68,0-4.7,1.79h0a.11.11,0,0,0,0-.08l0-.09c.29-2.65,2.93-3.44,5.13-4a.11.11,0,0,0,0-.22c-2.52.12-5.23,1.46-5.57,4.18l-.27-.13c-1.68-.8-3.36-1.61-5-2.44-1.12-.56-2.22-1.15-3.32-1.74a6.64,6.64,0,0,0,.16-.87c.89.13,1.79.27,2.68.47a30.82,30.82,0,0,1,3.29.92,2.16,2.16,0,0,0,1.24,1.61.08.08,0,0,0,.08,0,.08.08,0,0,0,0-.09h0a2.28,2.28,0,0,1-1-1.4l1.81.59a.12.12,0,0,0,.15-.07.1.1,0,0,0-.06-.14,19,19,0,0,0-1.78-.8,8.9,8.9,0,0,1,1.89-.85.06.06,0,0,0,0-.11,3.25,3.25,0,0,0-2.25.8,27.29,27.29,0,0,0-6-1.43,6.73,6.73,0,0,0-.07-1,41.46,41.46,0,0,0,4.26-.45c1.38-.15,2.84-.39,4.28-.47a1.74,1.74,0,0,0,.39.9,1.69,1.69,0,0,0,1.14.65s0-.05,0-.05a2,2,0,0,1-.93-.71,2,2,0,0,1-.28-.56,2,2,0,0,1,0-.24,11.93,11.93,0,0,1,1.69,0,.13.13,0,0,0,.13-.13.12.12,0,0,0-.1-.13,9.54,9.54,0,0,0-1.69-.12,2.7,2.7,0,0,1,.6-1.07,3.42,3.42,0,0,1,1.08-.58s0,0,0,0,0,0,0,0c-.84-.23-1.93.82-1.86,1.67a.07.07,0,0,0-.08,0c-1.34,0-2.69.19-4,.32-1.57.16-3.14.31-4.71.4a5.92,5.92,0,0,0-.4-1.09c1.32-.44,2.65-.84,4-1.19a63.27,63.27,0,0,1,9.36-1.76,66.09,66.09,0,0,1,18.89.62,64.13,64.13,0,0,1,33.12,16.8,61.76,61.76,0,0,1,6.28,7l.71.93c.24.31.48.62.7.93l1.34,1.92c.44.64.84,1.31,1.26,2s.81,1.33,1.2,2c.79,1.35,1.47,2.75,2.16,4.14s1.3,2.84,1.83,4.31,1,2.93,1.55,4.41.86,3,1.17,4.52a63.73,63.73,0,0,1-2.6,36.71,60.7,60.7,0,0,1-4,8.45,59.87,59.87,0,0,1-5.15,7.78c-.48.61-.92,1.23-1.45,1.82l-1.52,1.77c-.52.58-1.07,1.13-1.6,1.7s-1.09,1.11-1.66,1.64c-1.1,1.1-2.3,2.1-3.47,3.13s-2.43,2-3.71,2.84c-.62.45-1.26.92-1.92,1.33s-1.3.85-2,1.26l-2,1.18c-.66.4-1.37.73-2.06,1.1a63.39,63.39,0,0,1-17.66,6l-1.15.21-1.17.17c-.77.09-1.54.22-2.32.3l-2.34.21-.58,0-.59,0-1.17,0A64,64,0,0,1,41,133.88a65.93,65.93,0,0,1-25-28,64.66,64.66,0,0,0,61,40.11A65.85,65.85,0,0,0,140,65Z"/></g></g></g></g></svg>