<svg xmlns="http://www.w3.org/2000/svg" viewBox="0 0 699.18 224.77"><defs><style>.cls-1{fill:#91c46c;}.cls-2{fill:#878787;}</style></defs><g id="Layer_2" data-name="Layer 2"><g id="Capa_1" data-name="Capa 1"><path class="cls-1" d="M607,107.69V48.48H633.6v78.7h26V99.13h26.59v23.12a78.88,78.88,0,1,0-134.73-4.86h0c.67,1.19,1.35,2.34,2.08,3.49,17.61,31.42-7.14,46-7.14,46,24.81,1.28,34.3-19.81,34.3-19.81V107.69Z"/><path class="cls-2" d="M151.31,47.85l-15.18,9.43q-19.65-26.1-53.65-26.11-27.16,0-45.12,17.48T19.41,91.11a60.22,60.22,0,0,0,8.26,30.58A57.86,57.86,0,0,0,50.33,144a65.76,65.76,0,0,0,32.29,7.92q32.76,0,53.51-26.11l15.18,10a71.71,71.71,0,0,1-28.64,24.91q-18,8.85-40.94,8.85-35.25,0-58.5-22.41T0,92.54a77.79,77.79,0,0,1,10.87-40.1A76.52,76.52,0,0,1,40.73,23.52q19-10.38,42.51-10.38a91,91,0,0,1,28.5,4.5A79.15,79.15,0,0,1,135,29.4,63.89,63.89,0,0,1,151.31,47.85Z"/><path class="cls-2" d="M332.42,47.85l-15.18,9.43q-19.67-26.1-53.66-26.11-27.15,0-45.12,17.48T200.52,91.11a60.22,60.22,0,0,0,8.26,30.58A57.8,57.8,0,0,0,231.44,144a65.75,65.75,0,0,0,32.28,7.92q32.77,0,53.52-26.11l15.18,10a71.65,71.65,0,0,1-28.64,24.91q-18,8.85-40.94,8.85-35.25,0-58.5-22.41T181.11,92.54A77.87,77.87,0,0,1,192,52.44a76.59,76.59,0,0,1,29.86-28.92q19-10.38,42.51-10.38a91,91,0,0,1,28.51,4.5A79.34,79.34,0,0,1,316.14,29.4,63.92,63.92,0,0,1,332.42,47.85Z"/><path class="cls-2" d="M517.35,17V165.68H498.49V140.12q-12,14.61-27,22a73.11,73.11,0,0,1-32.74,7.37q-31.56,0-53.92-22.9T362.49,90.91Q362.49,58.78,385,36t54.27-22.82a70.23,70.23,0,0,1,33.14,7.78q14.82,7.78,26,23.38V17ZM440.88,31.59a57.69,57.69,0,0,0-51,29.9,60.28,60.28,0,0,0,.07,60.07,58.64,58.64,0,0,0,21.64,22.32,56.49,56.49,0,0,0,29.14,8A59.61,59.61,0,0,0,470.5,144a55.46,55.46,0,0,0,21.64-21.43,61.23,61.23,0,0,0,7.58-30.45q0-25.8-17-43.15T440.88,31.59Z"/><path class="cls-2" d="M32.75,197.2l-3.2,2.13a13.11,13.11,0,0,0-11.32-5.91,12.63,12.63,0,0,0-9.52,4A13.43,13.43,0,0,0,4.92,207a14.39,14.39,0,0,0,1.75,6.94,12.69,12.69,0,0,0,4.78,5,13.1,13.1,0,0,0,6.81,1.8,13.47,13.47,0,0,0,11.29-5.92l3.2,2.26a15.49,15.49,0,0,1-6,5.65,18.26,18.26,0,0,1-8.64,2,16.42,16.42,0,0,1-12.34-5.08,17.14,17.14,0,0,1-4.9-12.36,18.66,18.66,0,0,1,2.29-9.1,16.82,16.82,0,0,1,6.3-6.55,17.39,17.39,0,0,1,9-2.35,18,18,0,0,1,6,1A16.29,16.29,0,0,1,29.32,193,14.14,14.14,0,0,1,32.75,197.2Z"/><path class="cls-2" d="M93.77,189.33a15.08,15.08,0,0,1,12,5.64,19.1,19.1,0,0,1-.25,24.52,15.79,15.79,0,0,1-23.57,0,19.07,19.07,0,0,1-.25-24.5A15.1,15.1,0,0,1,93.77,189.33Zm0,4.24a11.27,11.27,0,0,0-8.66,4,13.92,13.92,0,0,0-3.62,9.66,14.5,14.5,0,0,0,1.65,6.82,12.2,12.2,0,0,0,4.46,4.88,11.91,11.91,0,0,0,12.33,0,12.2,12.2,0,0,0,4.46-4.88,14.5,14.5,0,0,0,1.65-6.82,13.84,13.84,0,0,0-3.64-9.66A11.26,11.26,0,0,0,93.76,193.57Z"/><path class="cls-2" d="M154.76,190.19h4v6.05a17.44,17.44,0,0,1,5.37-5.2,12.52,12.52,0,0,1,6.4-1.71,10.59,10.59,0,0,1,6.25,1.92,11.34,11.34,0,0,1,4,5.17c.86,2.17,1.3,5.55,1.3,10.13v17.36h-4V207.82a42.57,42.57,0,0,0-.45-7.78,8.72,8.72,0,0,0-2.69-5,7.74,7.74,0,0,0-5.19-1.69,9.56,9.56,0,0,0-6.57,2.61,12.35,12.35,0,0,0-3.82,6.44,48.36,48.36,0,0,0-.58,9.17v12.37h-4Z"/><path class="cls-2" d="M245.51,193.88l-2.6,2.88q-3.24-3.37-6.33-3.38a4.62,4.62,0,0,0-3.37,1.4,4.46,4.46,0,0,0-1.4,3.25,5,5,0,0,0,1.16,3.13,16.31,16.31,0,0,0,4.85,3.56q4.52,2.52,6.13,4.84a9.26,9.26,0,0,1,1.59,5.3,9.88,9.88,0,0,1-2.72,7,8.93,8.93,0,0,1-6.78,2.88,11.15,11.15,0,0,1-5.19-1.27,11.34,11.34,0,0,1-4.09-3.5l2.54-3.1q3.09,3.75,6.56,3.75A5.68,5.68,0,0,0,240,219a5.37,5.37,0,0,0,1.7-3.94,5.28,5.28,0,0,0-1.12-3.31,18.35,18.35,0,0,0-5.09-3.6q-4.25-2.34-5.78-4.65a9.19,9.19,0,0,1-1.54-5.23,8.83,8.83,0,0,1,2.45-6.38,8.17,8.17,0,0,1,6.17-2.54Q241.11,189.33,245.51,193.88Z"/><path class="cls-2" d="M290.17,190.19h4v15.75a35.74,35.74,0,0,0,.58,7.93,8.89,8.89,0,0,0,3.3,4.89,9.56,9.56,0,0,0,5.83,1.8,9.32,9.32,0,0,0,5.73-1.75,8.94,8.94,0,0,0,3.25-4.6q.6-2,.6-8.27V190.19h4.13v16.55q0,7-1.51,10.5a12.2,12.2,0,0,1-4.56,5.53,13.64,13.64,0,0,1-7.63,2,13.79,13.79,0,0,1-7.66-2,12.06,12.06,0,0,1-4.58-5.57q-1.51-3.58-1.52-10.77Z"/><path class="cls-2" d="M362.26,177.18h4v46.73h-4Z"/><path class="cls-2" d="M416.44,177.68h4v12.51h6.4v3.75h-6.4v30h-4v-30h-5.51v-3.75h5.51Z"/><path class="cls-2" d="M487.9,189.33a15.07,15.07,0,0,1,12,5.64,19.08,19.08,0,0,1-.24,24.52,15.8,15.8,0,0,1-23.58,0,19.07,19.07,0,0,1-.25-24.5A15.09,15.09,0,0,1,487.9,189.33Zm0,4.24a11.27,11.27,0,0,0-8.66,4,13.92,13.92,0,0,0-3.62,9.66,14.5,14.5,0,0,0,1.65,6.82,12.2,12.2,0,0,0,4.46,4.88,11.91,11.91,0,0,0,12.33,0,12.2,12.2,0,0,0,4.46-4.88,14.5,14.5,0,0,0,1.65-6.82,13.89,13.89,0,0,0-3.64-9.66A11.26,11.26,0,0,0,487.89,193.57Z"/><path class="cls-2" d="M548.89,190.19H553v4.93a15.19,15.19,0,0,1,3.9-4.35,7.28,7.28,0,0,1,4.26-1.44,7,7,0,0,1,3.58,1.14l-2.1,3.66a5.38,5.38,0,0,0-2.14-.59,5.63,5.63,0,0,0-3.89,1.78,11.56,11.56,0,0,0-2.86,5.53q-.75,2.88-.75,11.65v11.41h-4.12Z"/><path class="cls-2" d="M615.67,174.39h6.2l-8.51,9.55h-4Zm-4,15.8h4v33.72h-4Z"/><path class="cls-2" d="M699.18,190.19v33.72h-4v-5.8a17.83,17.83,0,0,1-5.7,5,14.49,14.49,0,0,1-6.91,1.67,14.84,14.84,0,0,1-11.38-5.19A18.11,18.11,0,0,1,666.51,207a17.72,17.72,0,0,1,4.76-12.46,15,15,0,0,1,11.45-5.17,13.93,13.93,0,0,1,7,1.76,16.44,16.44,0,0,1,5.5,5.3v-6.2Zm-16.13,3.32a11.48,11.48,0,0,0-6.22,1.78,12.58,12.58,0,0,0-4.54,5,14.51,14.51,0,0,0,0,13.61,12.91,12.91,0,0,0,4.57,5.06,11.29,11.29,0,0,0,6.15,1.82,11.92,11.92,0,0,0,6.28-1.8,12.12,12.12,0,0,0,4.56-4.86,14.63,14.63,0,0,0,1.6-6.9,14,14,0,0,0-3.58-9.78A11.49,11.49,0,0,0,683.05,193.51Z"/></g></g></svg>